<?xml version="1.0" encoding="utf-8"?>
<!-- Generator: Adobe Illustrator 25.1.0, SVG Export Plug-In . SVG Version: 6.00 Build 0)  -->
<svg version="1.1" id="Layer_1" xmlns="http://www.w3.org/2000/svg" xmlns:xlink="http://www.w3.org/1999/xlink" x="0px" y="0px"
	 viewBox="0 0 1280 640" style="enable-background:new 0 0 1280 640;" xml:space="preserve">
<style type="text/css">
	.st0{fill:#380D06;}
</style>
<g transform="translate(0.000000,640.000000) scale(0.100000,-0.100000)">
	<path class="st0" d="M5078,4980c-350-37-700-176-1079-431c-212-142-402-292-804-634c-426-362-624-510-885-657
		c-301-171-525-263-788-325c-100-23-139-27-262-27c-124,0-154,3-204,22c-89,33-137,65-199,132c-97,104-150,250-151,410
		c-1,116,23,178,91,241c79,72,155,100,443,162c132,28,199,56,246,104c63,63,41,97-104,158c-158,66-295,85-442,61
		c-288-47-514-194-699-452C-13,3388-66,2992,90,2628c295-687,1406-1140,2966-1209c818-36,1849,104,2378,322c193,79,297,142,532,321
		c76,58,233,136,309,153c84,20,192,23,224,6c13-7,62-41,110-76c806-589,2529-867,4021-649c664,97,1218,291,1600,562
		c118,83,298,262,368,364c237,347,265,713,82,1078c-96,191-259,388-429,516c-97,74-276,165-366,188c-194,49-363,16-487-94
		c-52-46-108-124-108-152c0-40,130-81,426-137c166-31,240-59,302-115c100-91,119-254,46-399c-30-58-144-180-241-258
		c-208-165-447-201-728-107c-97,32-275,122-376,190c-119,80-514,380-1009,767c-212,166-456,352-542,414c-513,365-931,561-1363,638
		c-112,20-162,23-360,23c-175,0-253-4-325-18c-230-42-451-114-659-213c-152-73-166-73-301,0c-203,109-468,198-672,226
		C5374,4985,5177,4990,5078,4980z"/>
</g>
</svg>
