<?xml version="1.0" standalone="no"?>
<!DOCTYPE svg PUBLIC "-//W3C//DTD SVG 20010904//EN"
 "http://www.w3.org/TR/2001/REC-SVG-20010904/DTD/svg10.dtd">
<svg version="1.0" xmlns="http://www.w3.org/2000/svg"
 width="1280.000000pt" height="1280.000000pt" viewBox="0 0 1280.000000 1280.000000"
 preserveAspectRatio="xMidYMid meet">
<metadata>
Created by potrace 1.15, written by Peter Selinger 2001-2017
</metadata>
<g transform="translate(0.000000,1280.000000) scale(0.100000,-0.100000)"
fill="#000000" stroke="none">
<path d="M680 9996 c8 -7 944 -706 2080 -1552 1136 -846 2411 -1796 2834
-2111 l769 -573 31 23 c17 13 1296 966 2841 2117 1546 1151 2814 2097 2819
2102 6 4 -2555 8 -5689 8 -4821 0 -5697 -2 -5685 -14z"/>
<path d="M626 7018 c-4 -1366 -6 -2856 -4 -3311 l3 -828 1146 1308 c631 719
1421 1621 1757 2005 l610 696 -1721 1283 c-947 705 -1736 1293 -1753 1306
l-32 23 -6 -2482z"/>
<path d="M12065 9482 c-11 -10 -789 -592 -1730 -1292 -940 -700 -1718 -1280
-1727 -1289 -16 -15 2 -39 290 -367 169 -193 955 -1090 1747 -1994 l1440
-1643 3 1652 c1 908 1 2394 0 3301 -3 1650 -3 1651 -23 1632z"/>
<path d="M7335 5955 c-533 -398 -974 -721 -980 -717 -5 3 -441 327 -967 719
-527 392 -962 713 -967 713 -5 0 -762 -858 -1681 -1907 l-1672 -1908 2652 -3
c1458 -1 3841 -1 5295 0 l2643 3 -1669 1905 c-919 1048 -1673 1908 -1677 1912
-4 3 -443 -319 -977 -717z"/>
</g>
</svg>
