<?xml version="1.0" encoding="utf-8"?>
<!-- Generator: Adobe Illustrator 25.1.0, SVG Export Plug-In . SVG Version: 6.00 Build 0)  -->
<svg version="1.1" id="Capa_1" xmlns="http://www.w3.org/2000/svg" xmlns:xlink="http://www.w3.org/1999/xlink" x="0px" y="0px"
	 viewBox="0 0 512 512" style="enable-background:new 0 0 512 512;" xml:space="preserve">
<style type="text/css">
	.st0{fill:#85372C;}
</style>
<g>
	<g>
		<path class="st0" d="M257,0C116.4,0,0,114.4,0,255s116.4,257,257,257s255-116.4,255-257S397.6,0,257,0z M348.9,268.1L212.6,404.4
			c-6.6,6.6-17.2,6.6-23.8,0l-18.6-18.6c-6.6-6.6-6.6-17.2,0-23.8l93.9-93.9c7.2-7.2,7.2-18.9-0.1-26.1l-93.6-92
			c-6.7-6.5-6.7-17.3-0.1-23.9l18.6-18.6c6.5-6.5,17.1-6.6,23.7-0.1L348.8,242C356.1,249.2,356.1,260.9,348.9,268.1z"/>
	</g>
</g>
</svg>
